<?xml version="1.0" standalone="no"?>
<!DOCTYPE svg PUBLIC "-//W3C//DTD SVG 20010904//EN"
 "http://www.w3.org/TR/2001/REC-SVG-20010904/DTD/svg10.dtd">
<svg version="1.0" xmlns="http://www.w3.org/2000/svg"
 width="512.000000pt" height="512.000000pt" viewBox="0 0 512.000000 512.000000"
 preserveAspectRatio="xMidYMid meet">
<metadata>
Created by potrace 1.11, written by Peter Selinger 2001-2013
</metadata>
<g transform="translate(0.000000,512.000000) scale(0.100000,-0.100000)"
fill="#000000" stroke="none">
<path d="M552 5107 c-44 -16 -99 -62 -123 -101 -22 -35 -24 -71 -6 -103 7 -12
153 -133 325 -268 l312 -247 -26 -30 c-114 -136 -430 -488 -438 -488 -5 0 -80
28 -165 62 -219 86 -275 84 -378 -15 -23 -22 -45 -53 -49 -69 -12 -59 9 -82
165 -178 80 -49 152 -94 159 -98 10 -7 9 -16 -3 -45 -59 -142 53 -307 207
-307 32 0 74 6 93 14 19 8 37 11 40 6 3 -4 -10 -64 -29 -132 -50 -182 -67
-294 -73 -478 -22 -664 272 -1271 813 -1676 449 -336 1036 -467 1589 -354 49
10 92 17 94 14 2 -2 -1 -9 -6 -16 -44 -57 -56 -215 -23 -321 30 -97 55 -122
156 -153 101 -32 194 -30 287 6 59 22 141 93 233 202 l40 47 343 -186 c219
-118 356 -187 381 -190 64 -9 128 15 181 66 65 63 76 124 31 169 -9 9 -153
124 -320 255 l-302 239 26 30 c114 136 430 488 438 488 5 0 80 -28 165 -62
219 -86 275 -84 378 15 23 22 45 53 49 69 12 59 -9 82 -165 178 -80 49 -152
94 -159 98 -10 7 -9 16 3 45 59 142 -53 307 -207 307 -32 0 -74 -6 -93 -14
-19 -8 -37 -11 -40 -6 -3 4 10 64 29 132 50 181 67 294 73 474 12 341 -48 630
-193 932 -109 228 -230 397 -410 573 -174 169 -320 271 -544 378 -260 124
-490 179 -785 188 -183 6 -318 -5 -469 -38 -49 -10 -91 -18 -92 -16 -2 2 8 30
21 63 45 109 25 295 -41 373 -39 47 -170 85 -272 79 -136 -8 -203 -51 -358
-230 l-40 -47 -342 185 c-296 161 -349 186 -394 190 -29 2 -68 -2 -86 -9z
m412 -316 c419 -227 397 -217 443 -205 30 7 57 31 135 119 136 153 209 186
330 151 64 -18 78 -39 85 -133 9 -97 -22 -149 -156 -268 -112 -99 -138 -135
-128 -183 3 -15 92 -185 196 -378 105 -193 191 -359 191 -367 0 -9 -4 -18 -9
-21 -4 -3 -104 117 -222 267 -257 327 -271 343 -314 357 -28 9 -41 8 -74 -7
-39 -18 -565 -474 -615 -534 -17 -19 -26 -43 -26 -64 0 -18 32 -115 71 -215
38 -100 68 -189 64 -198 -4 -11 -33 30 -90 124 -47 76 -94 147 -106 156 -38
32 -84 33 -133 4 -58 -34 -98 -34 -125 0 -27 35 -26 54 5 114 31 59 27 104
-11 142 -13 13 -83 60 -154 103 -180 109 -156 117 80 25 182 -70 225 -80 266
-57 34 19 532 587 550 626 21 49 10 93 -35 133 -20 18 -162 131 -315 252 -264
207 -293 235 -243 236 6 0 159 -81 340 -179z m1516 -780 l0 -388 -117 4 c-194
7 -170 -9 -263 163 l-82 150 32 58 c97 172 227 314 340 370 35 18 69 32 77 32
11 0 13 -70 13 -389z m249 357 c135 -66 288 -251 390 -471 51 -109 96 -225 90
-231 -5 -5 -338 -34 -466 -40 l-103 -5 0 389 c0 283 3 390 11 390 6 0 41 -15
78 -32z m-609 -15 c0 -4 -15 -23 -34 -43 -19 -19 -61 -75 -94 -123 l-60 -88
-45 83 c-35 66 -42 85 -31 91 15 9 244 86 257 87 4 0 7 -3 7 -7z m1133 -78
c133 -53 264 -125 385 -212 96 -68 271 -227 262 -236 -16 -17 -353 -106 -501
-132 l-37 -7 -17 54 c-62 192 -188 426 -299 556 -25 30 -46 55 -46 57 0 9 155
-40 253 -80z m-1698 -402 c38 -49 84 -107 103 -130 l34 -43 -33 6 c-61 11
-339 83 -353 91 -10 6 11 30 73 85 47 42 91 77 97 77 6 1 42 -38 79 -86z
m2519 -250 c125 -176 225 -393 277 -600 28 -110 67 -368 58 -378 -3 -2 -201
-7 -442 -11 l-437 -7 0 29 c-1 205 -54 613 -106 817 -8 32 -12 62 -9 66 2 5
26 12 52 16 70 10 376 90 458 119 39 13 75 25 82 25 7 1 37 -34 67 -76z
m-2839 37 c93 -32 360 -96 483 -117 l113 -18 62 -80 c85 -111 102 -125 149
-125 32 0 47 8 88 46 27 26 55 62 62 80 l12 34 92 0 c50 0 112 -3 138 -6 l46
-7 0 -418 0 -419 -364 0 c-231 0 -367 4 -371 10 -9 15 13 318 35 470 11 74 20
145 20 158 0 60 -94 84 -131 32 -27 -37 -78 -456 -79 -642 l0 -28 -440 0 -440
0 0 28 c0 70 50 376 64 389 2 2 20 -23 41 -56 40 -67 58 -81 105 -81 39 0 124
76 151 135 31 68 25 109 -47 293 l-66 170 43 39 c24 21 67 59 96 86 29 26 59
47 67 47 7 0 39 -9 71 -20z m2049 -247 c49 -205 82 -462 88 -678 l3 -100 -367
-3 -368 -2 0 419 0 419 73 6 c39 3 124 8 187 11 63 4 162 12 220 19 58 7 112
14 122 15 13 1 22 -21 42 -106z m-1694 -955 c0 -62 22 -327 36 -432 34 -268
102 -538 193 -763 l20 -52 -32 -5 c-39 -6 -361 -64 -400 -72 -25 -6 -39 6
-155 122 -242 246 -399 517 -481 834 -26 100 -61 312 -61 371 0 19 11 19 440
19 l440 0 0 -22z m890 -591 l0 -614 -187 -6 c-104 -4 -213 -10 -244 -13 l-55
-6 -48 121 c-106 274 -171 588 -196 951 -5 80 -10 153 -10 163 0 16 24 17 370
17 l370 0 0 -613z m895 511 c-8 -133 -33 -377 -46 -441 -16 -88 -12 -123 17
-146 33 -26 54 -26 87 -1 29 23 38 57 62 240 13 101 35 364 35 428 l0 22 441
0 441 0 -7 -72 c-8 -88 -30 -225 -48 -293 l-13 -49 -38 62 c-41 68 -59 82
-106 82 -39 0 -124 -76 -151 -135 -31 -68 -25 -109 48 -294 36 -94 64 -173 62
-174 -2 -2 -117 -103 -256 -225 -139 -122 -256 -222 -261 -222 -5 0 -114 134
-243 298 -129 163 -245 307 -258 320 -16 15 -36 22 -63 22 -32 0 -47 -8 -88
-46 -60 -56 -84 -114 -78 -183 4 -38 24 -86 85 -198 44 -81 79 -150 77 -152
-1 -2 -56 2 -121 8 -65 6 -162 14 -215 17 l-98 7 0 613 0 614 371 0 371 0 -7
-102z m910 -506 c37 -62 81 -124 97 -137 42 -35 91 -36 144 -4 45 27 88 25
113 -7 27 -35 26 -54 -5 -114 -33 -63 -27 -106 19 -147 18 -15 87 -61 155
-102 93 -56 119 -77 108 -83 -11 -6 -74 14 -197 62 -100 38 -196 70 -213 70
-17 0 -43 -8 -58 -18 -47 -30 -532 -590 -547 -631 -27 -71 -10 -89 323 -351
164 -129 298 -239 298 -245 -1 -5 -8 -11 -17 -13 -8 -2 -179 85 -378 192 -200
108 -374 196 -388 196 -40 0 -80 -32 -169 -134 -109 -127 -150 -151 -250 -151
-125 1 -160 36 -160 166 0 83 28 127 149 236 58 53 112 105 120 116 34 48 22
78 -178 446 -173 319 -210 401 -182 401 6 0 116 -135 246 -300 130 -165 246
-307 258 -315 29 -20 96 -19 128 3 63 42 596 523 607 546 7 15 12 36 12 47 0
11 -32 103 -71 204 -43 111 -69 191 -65 201 8 21 3 27 101 -134z m-1805 -962
c0 -134 -3 -190 -11 -190 -33 0 -149 71 -213 131 -67 63 -176 204 -176 228 0
11 70 16 278 19 l122 2 0 -190z m336 180 c71 -5 150 -13 176 -16 l48 -6 -51
-74 c-68 -98 -180 -203 -259 -242 -35 -18 -69 -32 -77 -32 -10 0 -13 38 -13
190 l0 190 24 0 c12 0 81 -4 152 -10z m-863 -97 c25 -43 67 -104 94 -137 86
-105 85 -98 1 -75 -134 37 -285 102 -423 182 -59 35 -66 42 -50 49 15 6 201
39 326 57 4 1 27 -34 52 -76z m1285 -64 l41 -77 -71 -26 c-86 -32 -208 -67
-208 -59 0 3 19 27 43 53 24 26 66 82 93 123 27 42 52 73 55 69 3 -4 24 -41
47 -83z"/>
</g>
</svg>
