<?xml version="1.0" standalone="no"?>
<!DOCTYPE svg PUBLIC "-//W3C//DTD SVG 20010904//EN"
 "http://www.w3.org/TR/2001/REC-SVG-20010904/DTD/svg10.dtd">
<svg version="1.0" xmlns="http://www.w3.org/2000/svg"
 width="512.000000pt" height="512.000000pt" viewBox="0 0 512.000000 512.000000"
 preserveAspectRatio="xMidYMid meet">
<metadata>
Created by potrace 1.11, written by Peter Selinger 2001-2013
</metadata>
<g transform="translate(0.000000,512.000000) scale(0.100000,-0.100000)"
fill="#000000" stroke="none">
<path d="M552 5109 c-18 -6 -58 -34 -88 -63 -57 -56 -67 -87 -43 -140 6 -13
153 -136 326 -272 l314 -247 -24 -26 c-13 -14 -108 -123 -212 -241 -103 -118
-196 -224 -206 -234 -18 -19 -21 -19 -178 43 -89 34 -176 65 -196 68 -62 10
-124 -15 -187 -77 -49 -48 -58 -61 -58 -92 0 -20 8 -45 18 -56 9 -12 85 -62
167 -113 83 -50 151 -93 153 -94 1 -1 -5 -18 -13 -38 -43 -103 8 -238 109
-287 54 -26 136 -29 189 -7 49 21 51 10 16 -109 -73 -243 -98 -561 -65 -810
121 -921 853 -1640 1776 -1745 146 -16 424 -7 567 20 61 12 118 24 127 27 14
5 13 -1 -4 -42 -43 -98 -43 -214 0 -326 26 -71 58 -99 149 -128 58 -18 86 -22
155 -18 127 7 190 41 307 168 51 55 96 100 101 100 5 0 160 -82 344 -181 239
-130 346 -183 377 -186 70 -8 123 12 183 71 57 55 67 87 43 140 -6 13 -153
136 -326 272 l-314 247 20 21 c10 12 109 125 220 251 111 127 207 234 214 238
8 6 72 -14 169 -53 87 -33 173 -64 193 -67 62 -10 124 15 187 77 49 48 58 61
58 92 0 20 -8 45 -17 56 -10 12 -85 62 -168 113 -82 50 -151 93 -153 94 -1 1
5 18 13 38 43 103 -8 238 -110 287 -54 26 -134 29 -187 7 -50 -21 -52 -10 -17
109 60 201 74 305 74 564 0 200 -4 252 -22 350 -81 425 -270 778 -575 1076
-237 231 -469 374 -768 474 -231 77 -430 105 -694 97 -162 -5 -359 -29 -420
-53 -14 -5 -14 -1 3 38 41 96 44 200 9 308 -28 89 -59 118 -156 149 -59 19
-87 23 -155 19 -128 -7 -179 -35 -305 -166 l-103 -107 -62 34 c-34 18 -145 78
-247 134 -349 189 -386 207 -432 206 -24 0 -58 -5 -76 -10z m431 -330 c254
-138 364 -193 395 -197 l43 -5 132 135 c130 134 133 135 193 148 52 10 69 10
122 -5 62 -18 62 -18 77 -68 19 -63 19 -91 1 -153 -13 -43 -31 -65 -141 -169
-178 -169 -181 -124 38 -527 220 -406 219 -406 210 -422 -6 -9 -82 81 -251
295 -224 284 -246 309 -283 319 -47 13 -71 7 -119 -28 -48 -36 -527 -456 -567
-498 -46 -47 -44 -92 8 -225 76 -194 98 -258 90 -263 -4 -3 -43 54 -87 125
-43 72 -89 139 -101 150 -11 12 -39 23 -62 26 -33 5 -49 1 -81 -21 -49 -33
-84 -33 -115 -1 -31 30 -31 59 0 110 14 22 25 53 25 68 0 58 -25 83 -175 174
-186 113 -163 122 74 29 193 -76 234 -82 280 -38 45 41 501 563 523 597 24 38
18 98 -14 132 -13 14 -155 129 -316 256 -272 214 -305 246 -259 247 5 0 167
-86 360 -191z m1497 -766 l0 -388 -142 6 c-79 4 -146 7 -150 8 -3 0 -43 69
-87 152 l-82 150 32 57 c111 196 244 335 367 383 26 10 50 18 55 19 4 0 7
-174 7 -387z m264 344 c158 -83 308 -286 421 -566 25 -63 42 -118 38 -122 -10
-9 -331 -38 -466 -41 l-97 -3 0 388 0 388 23 -6 c12 -4 49 -21 81 -38z m-624
-1 c0 -2 -21 -28 -46 -58 -25 -29 -67 -86 -94 -126 l-48 -73 -44 83 -45 83 31
14 c17 8 78 29 136 47 121 38 110 35 110 30z m1146 -87 c135 -56 299 -149 411
-235 81 -63 223 -192 223 -203 0 -16 -467 -141 -525 -141 -5 0 -25 42 -44 93
-70 195 -188 407 -297 534 l-36 42 74 -21 c40 -11 127 -42 194 -69z m-1683
-433 c53 -68 97 -126 97 -129 0 -3 -39 4 -87 14 -83 19 -118 28 -248 65 l-54
15 90 80 c49 43 93 79 98 79 4 0 51 -56 104 -124z m2487 -208 c188 -267 302
-580 335 -920 l7 -68 -441 0 -441 0 0 33 c0 166 -44 528 -90 733 -15 71 -26
132 -23 137 2 4 14 7 26 7 41 0 311 68 432 108 66 22 126 41 132 41 7 1 35
-32 63 -71z m-2801 21 c112 -36 351 -92 468 -110 45 -7 86 -15 91 -18 5 -3 41
-47 80 -97 77 -98 85 -104 138 -104 41 0 114 61 145 122 19 37 21 38 72 38 28
0 89 -3 135 -7 l82 -6 0 -413 0 -414 -371 0 -370 0 5 68 c3 37 8 108 11 157 3
50 15 161 27 247 24 173 20 200 -27 218 -33 13 -79 -5 -93 -35 -23 -51 -71
-469 -72 -622 l0 -33 -441 0 -441 0 7 68 c8 87 32 234 48 296 l13 48 37 -61
c42 -68 60 -81 109 -81 27 0 43 10 85 53 59 59 83 108 83 167 0 34 -48 172
-127 366 -4 12 182 184 200 184 5 0 53 -14 106 -31z m2010 -217 c45 -190 76
-402 86 -572 3 -58 8 -131 11 -162 l5 -58 -371 0 -370 0 0 414 0 414 118 6
c142 8 465 37 471 42 18 17 32 -6 50 -84z m-1689 -984 c0 -84 23 -337 41 -463
37 -255 101 -512 174 -691 18 -46 30 -84 27 -84 -18 0 -258 -41 -346 -60 l-99
-20 -54 46 c-78 67 -206 209 -274 304 -196 274 -312 590 -343 933 l-7 67 441
0 440 0 0 -32z m890 -581 l0 -614 -192 -6 c-106 -4 -216 -9 -243 -13 l-50 -6
-46 118 c-102 260 -175 602 -194 904 -3 52 -8 125 -11 163 l-5 67 370 0 371 0
0 -613z m896 556 c-3 -32 -8 -105 -11 -163 -3 -58 -15 -168 -26 -245 -27 -189
-27 -194 5 -222 36 -30 61 -29 95 5 23 23 29 42 44 142 20 138 33 264 42 423
l7 117 440 0 440 0 -7 -67 c-8 -88 -32 -235 -48 -297 l-13 -48 -37 61 c-42 68
-60 81 -110 81 -27 0 -43 -10 -82 -47 -57 -57 -84 -112 -85 -171 0 -36 44
-163 127 -369 5 -12 -503 -466 -517 -461 -5 2 -115 138 -245 303 -130 165
-245 308 -257 318 -12 10 -37 17 -59 17 -32 0 -48 -8 -85 -42 -60 -55 -84
-104 -84 -169 0 -55 10 -79 119 -278 l51 -94 -48 6 c-26 3 -125 11 -219 18
l-173 13 0 613 0 613 370 0 371 0 -5 -57z m1007 -695 c38 -30 77 -31 130 -3
61 31 91 32 122 0 31 -30 31 -59 0 -110 -29 -47 -31 -74 -9 -121 13 -26 46
-52 160 -121 190 -116 172 -125 -66 -33 -99 38 -195 70 -213 70 -18 0 -44 -8
-59 -18 -29 -18 -507 -556 -540 -607 -23 -36 -19 -96 9 -127 10 -11 152 -127
317 -256 259 -205 296 -237 278 -245 -16 -8 -81 24 -344 166 -417 226 -407
221 -452 213 -29 -6 -53 -26 -132 -113 -112 -124 -128 -138 -185 -158 -54 -19
-113 -18 -168 3 -52 20 -69 55 -70 142 -1 92 29 141 158 255 136 121 147 144
108 226 -13 30 -102 196 -196 369 -154 283 -188 359 -156 353 6 -1 116 -136
245 -300 258 -327 277 -345 345 -323 44 15 632 531 646 567 16 43 11 64 -62
251 -39 102 -68 190 -65 199 5 11 33 -27 92 -123 47 -76 95 -147 107 -156z
m-1903 -819 l0 -190 -22 6 c-64 20 -150 76 -219 145 -74 73 -165 197 -153 209
8 8 143 17 282 19 l112 2 0 -191z m320 181 c74 -5 159 -13 187 -16 l53 -6 -52
-75 c-87 -126 -224 -238 -325 -268 l-23 -6 0 190 c0 146 3 191 13 191 6 0 73
-5 147 -10z m-803 -165 c29 -44 69 -99 89 -122 l36 -42 -74 21 c-170 47 -511
210 -477 228 11 6 146 28 319 54 8 1 24 -12 34 -29 11 -16 43 -66 73 -110z
m1238 7 c22 -42 34 -76 29 -81 -12 -11 -113 -47 -197 -71 l-68 -19 18 23 c70
90 133 176 149 203 10 18 21 29 25 25 3 -4 23 -40 44 -80z"/>
</g>
</svg>
